<?xml version="1.0" standalone="no"?>
<!DOCTYPE svg PUBLIC "-//W3C//DTD SVG 20010904//EN"
 "http://www.w3.org/TR/2001/REC-SVG-20010904/DTD/svg10.dtd">
<svg version="1.0" xmlns="http://www.w3.org/2000/svg"
 width="706.000000pt" height="706.000000pt" viewBox="0 0 706.000000 706.000000"
 preserveAspectRatio="xMidYMid meet">
<metadata>
Created by potrace 1.14, written by Peter Selinger 2001-2017
</metadata>
<g transform="translate(0.000000,706.000000) scale(0.100000,-0.100000)"
fill="#000000" stroke="none">
<path d="M4631 6960 c-96 -55 -176 -100 -178 -100 -3 0 -42 -22 -89 -50 -47
-27 -87 -50 -90 -50 -3 0 -12 -7 -21 -15 -8 -8 -19 -13 -24 -10 -5 4 -9 2 -9
-3 0 -5 -8 -12 -17 -15 -10 -4 -38 -18 -63 -33 -25 -15 -65 -38 -90 -52 -25
-14 -106 -60 -180 -102 -75 -42 -142 -79 -150 -83 -8 -4 -31 -17 -50 -28 -19
-12 -64 -37 -100 -57 -35 -19 -100 -56 -145 -82 l-80 -46 0 -503 0 -504 -93
-54 c-52 -29 -122 -69 -155 -88 -34 -18 -120 -67 -192 -109 l-130 -75 -1 -610
0 -610 35 15 c19 8 39 18 45 23 6 5 61 34 122 65 84 43 113 63 116 79 2 12 3
209 3 437 l-1 415 41 23 c53 31 98 57 225 128 58 32 107 62 108 66 2 4 8 8 14
8 5 0 58 28 116 62 128 73 145 83 242 136 l75 41 0 -2404 c0 -1629 -3 -2406
-10 -2408 -5 -3 -62 -4 -125 -3 l-115 1 0 1870 c0 1029 -4 1872 -8 1874 -5 2
-137 -70 -295 -160 -158 -90 -307 -175 -332 -189 -25 -14 -222 -125 -436 -248
l-391 -223 0 -435 c0 -239 -2 -437 -6 -440 -5 -6 -32 15 -86 67 -37 36 -239
158 -271 164 -3 0 -20 9 -37 18 -18 10 -36 18 -40 18 -11 2 -19 5 -88 28 -74
25 -171 51 -208 57 -16 2 -32 6 -37 9 -4 3 -25 7 -46 11 -22 3 -43 9 -49 12
-5 4 -14 7 -20 8 -5 1 -24 4 -42 7 -17 3 -35 7 -40 10 -4 3 -26 8 -48 11 -82
13 -365 100 -489 151 -18 8 -18 1 -12 -206 4 -118 9 -227 11 -244 2 -16 7 -50
10 -75 2 -25 7 -61 10 -81 3 -20 8 -52 10 -70 18 -136 111 -488 155 -584 5
-11 28 -65 51 -120 24 -55 60 -131 81 -169 21 -38 38 -71 38 -73 0 -8 129
-201 145 -217 8 -8 15 -18 15 -23 0 -4 14 -23 30 -42 16 -18 42 -49 57 -68 91
-114 266 -286 393 -387 47 -37 92 -73 100 -79 105 -84 366 -231 544 -306 206
-88 496 -173 663 -196 15 -2 44 -6 63 -10 19 -4 46 -8 60 -9 14 -2 61 -7 105
-12 98 -10 496 -12 585 -2 36 4 86 10 111 12 54 6 85 11 199 32 47 9 94 18
105 20 71 10 312 87 457 145 156 62 437 207 446 231 2 4 8 8 14 8 9 0 163 107
190 133 7 7 35 30 63 52 157 126 330 305 462 478 18 23 38 49 45 58 32 38 129
189 175 274 107 193 206 447 237 605 3 14 8 36 11 50 11 47 36 195 41 250 3
30 9 86 13 125 4 38 9 183 10 322 l2 252 -30 -10 c-17 -6 -34 -15 -37 -20 -3
-5 -12 -9 -20 -9 -9 0 -40 -11 -70 -25 -30 -14 -56 -25 -59 -25 -2 0 -16 -5
-32 -11 -29 -12 -177 -65 -343 -124 -52 -18 -153 -47 -224 -64 -332 -81 -569
-195 -723 -351 -24 -23 -43 -38 -44 -34 0 5 -1 1059 -1 2342 -1 1282 -2 2332
-2 2332 -1 0 -79 -45 -175 -100z m-145 -3471 l-1 -3022 -25 -10 c-47 -18 -214
-66 -219 -62 -3 2 -6 1199 -5 2662 0 1462 -1 2661 -3 2665 -2 4 -66 -29 -142
-73 -76 -43 -143 -79 -150 -79 -6 0 -11 -4 -11 -10 0 -5 -11 -12 -25 -16 -14
-3 -25 -10 -25 -14 0 -4 -8 -10 -17 -13 -20 -7 -115 -58 -135 -74 -7 -5 -24
-14 -38 -20 l-25 -10 0 318 0 318 25 13 c14 7 57 32 97 55 39 24 73 43 76 43
2 0 89 49 193 108 105 60 197 111 204 115 8 4 22 11 30 17 12 8 193 110 196
110 0 0 0 -1360 0 -3021z m-1141 -1528 l0 -1598 -125 1 -125 1 0 1503 c0 826
-1 1502 -3 1502 -8 0 -291 -148 -308 -161 -7 -6 -10 -421 -10 -1388 1 -759 -1
-1389 -4 -1399 -5 -19 -10 -18 -117 18 -61 21 -115 40 -120 43 -6 4 -10 516
-10 1313 l0 1306 24 11 c12 5 23 14 23 19 0 4 5 8 11 8 5 0 51 24 102 54 51
29 113 65 140 80 102 57 143 80 177 101 19 12 42 24 50 28 8 4 76 42 150 85
74 43 137 77 140 74 3 -2 5 -723 5 -1601z m2739 622 c-5 -56 -14 -166 -15
-183 0 -8 -5 -37 -10 -65 -5 -27 -11 -70 -14 -94 -3 -23 -7 -46 -10 -50 -2 -4
-6 -18 -8 -32 -7 -36 -37 -152 -44 -169 -3 -8 -7 -22 -9 -30 -9 -46 -119 -290
-170 -379 -48 -85 -143 -223 -211 -310 -118 -149 -345 -368 -508 -489 -6 -4
-18 -13 -27 -20 -15 -12 -16 -11 -12 15 18 107 109 398 169 543 67 162 178
351 282 480 24 30 99 111 166 179 67 68 111 117 97 111 -14 -7 -27 -16 -30
-19 -3 -4 -52 -36 -110 -71 -58 -35 -107 -67 -110 -70 -3 -3 -39 -32 -80 -65
-109 -86 -244 -224 -335 -343 -5 -7 -15 -18 -20 -25 -49 -58 -192 -281 -239
-372 -24 -48 -26 -49 -27 -20 -3 94 0 594 4 615 22 105 118 340 139 340 4 0 7
3 6 8 -7 19 168 212 192 212 5 0 15 6 22 13 12 12 136 78 183 97 70 29 155 55
293 89 146 37 308 89 392 125 48 21 47 21 44 -21z m-5026 -6 c31 -13 77 -29
102 -36 25 -7 52 -16 60 -19 21 -7 36 -12 45 -12 3 -1 23 -7 45 -15 22 -8 43
-14 45 -14 15 2 92 -14 106 -22 9 -4 27 -10 40 -13 94 -17 277 -96 369 -159
39 -27 136 -119 165 -158 22 -29 71 -116 88 -154 17 -38 56 -164 61 -195 2 -8
7 -33 11 -55 9 -45 11 -512 2 -521 -3 -3 -11 11 -18 30 -7 20 -16 36 -19 36
-3 0 -16 20 -30 45 -14 25 -28 45 -32 45 -5 0 -8 5 -8 11 0 9 -39 70 -77 119
-7 8 -34 44 -60 80 -49 66 -250 272 -318 325 -36 28 -119 88 -153 110 -43 28
-179 112 -192 119 -8 5 33 -40 93 -100 59 -60 121 -125 138 -144 175 -196 334
-502 429 -827 44 -151 76 -293 67 -293 -9 0 -75 46 -87 60 -3 3 -14 13 -26 21
-68 47 -272 238 -344 324 -269 317 -456 713 -524 1110 -3 17 -8 41 -11 55 -9
48 -15 86 -20 140 -11 104 -13 130 -9 130 3 0 30 -10 62 -23z"/>
<path d="M1945 4838 c-133 -19 -238 -69 -333 -162 -148 -141 -215 -328 -190
-524 21 -163 96 -295 233 -411 45 -38 174 -98 247 -114 83 -18 222 -14 303 10
72 22 176 76 217 115 17 15 34 28 39 28 5 0 9 3 9 8 0 4 13 21 28 39 51 59 57
68 85 125 102 208 83 450 -49 634 -135 190 -359 286 -589 252z"/>
</g>
</svg>
